<?xml version="1.0" encoding="utf-8"?>
<!-- Generator: Adobe Illustrator 23.0.1, SVG Export Plug-In . SVG Version: 6.00 Build 0)  -->
<svg version="1.1" id="Layer_1" xmlns="http://www.w3.org/2000/svg" xmlns:xlink="http://www.w3.org/1999/xlink" x="0px" y="0px"
	 viewBox="0 0 500 500" style="enable-background:new 0 0 500 500;" xml:space="preserve">
<style type="text/css">
	.st0{fill:#FFFFFF;}
</style>
<image style="overflow:visible;" width="1300" height="1300" xlink:href="../../../../54756968-artillery-icon-of-vector-illustration-for-web-and-mobile-design.jpg"  transform="matrix(0.72 0 0 0.72 -1193.3191 -293.5745)">
</image>
<g>
	<path class="st0" d="M461.1,382.3l-7.2-14.4c-0.9-1.7-2.4-3-4.2-3.6l-85.4-27.6c-2.8-0.9-5.3-2.6-7.2-4.8c-2-2.4-4-6-4.5-11.1
		c-0.3-2.8,0.6-5.6,2.5-7.7c1.7-1.9,3.7-5.3,3.8-10.8c0.2-9.7,0.2-9.7,0.2-9.7l1.7-1.5c0,0,1,6.2,4.7,4.4c0,0,2.3-1.6,0.1-7.7
		c-0.1-0.4-0.3-0.7-0.4-1.1l-3.9-14.1c0,0-3.7-1.8-4,5c0,0.5-0.3,0.9-0.7,1.1c-0.7,0.4-1.6,0.2-2.2-0.4l-3.9-3.8
		c-0.6-0.6-1.5-1-2.4-0.9c-2,0.1-3.6-1.8-3.1-3.7c0.1-0.5,0.3-1,0.5-1.6c0,0,4.4-15.5-10.8-25.4c-1-0.7-1.6-1.9-1.4-3.1l5.6-41.1
		c0.1-0.9-1.1-1.2-1.4-0.4c-3.6,8.6-10.5,26.5-11.5,38.4c-0.1,1-1,1.7-2,1.4c-1.2-0.3-2.8-0.7-4.2-0.9c-1.1-0.1-2-1.1-2-2.2l0-59.7
		c0-0.8-0.7-1.5-1.5-1.5h0c-0.8,0-1.5,0.7-1.5,1.5v32.5c0,1.1-0.7,2.1-1.8,2.5c-0.7,0.3-1.3,1-1.4,2.7v22.6c0,1.3-0.8,2.4-2.1,2.7
		c-0.4,0.1-0.9,0.3-1.4,0.5c-1.8,0.8-3.8,0.7-5.5-0.2l-75.3-44c-2.5-1.4-3.1-4.7-1.3-6.9l14.3-18c1.7-2.1,3-4.4,4-7
		c1.9-5,4.5-13.3,2.6-19.3c-0.1-0.4-0.4-0.8-0.7-1.2c-1.7-1.7-7.3-5.3-15.8,8l-24.7,33.7c-1.7,2.4-4.9,3-7.5,1.5l-86.8-50.8
		c-1.1-0.7-1.8-1.9-1.8-3.2c0-1.4-0.8-3.3-4-4.7l-43.6-25.9c-2.1-1.3-4.8-0.6-6.1,1.5l-18.2,30.3c-1.3,2.1-0.6,4.8,1.5,6.1
		l46.1,27.9c0,0,2.4,1.2,4.5,0.3c1.4-0.6,2.9-0.3,4.2,0.4L174,217c1.8,1.1,2.3,3.5,1.2,5.2c-5.7,8.9-19.9,35-7.5,54.3c0,0,0,0,0,0
		c0.3-0.2,38.1-28,81.1,7.2c0,0,35.8,30.8,20.2,73.9c-0.5,1.4,0.5,2.8,1.9,2.9l72.8,3.6c4,0.2,8,0.8,11.9,1.7l102,24.5
		C457.7,390.4,464.6,390.8,461.1,382.3z M77.3,119.6l-13.8,22.8c-1.2,2-3.8,2.6-5.8,1.4l-7.4-4.5c-2-1.2-2.6-3.8-1.4-5.8l13.8-22.8
		c1.2-2,3.8-2.6,5.8-1.4l7.4,4.5C77.9,115,78.6,117.6,77.3,119.6z"/>
	<path class="st0" d="M203.2,272.3c-35,0-63.3,28.3-63.3,63.3c0,35,28.3,63.3,63.3,63.3s63.3-28.3,63.3-63.3
		C266.5,300.7,238.1,272.3,203.2,272.3z M203.2,382.1c-25.7,0-46.5-20.8-46.5-46.5s20.8-46.5,46.5-46.5s46.5,20.8,46.5,46.5
		S228.8,382.1,203.2,382.1z"/>
	<circle class="st0" cx="203.2" cy="335.6" r="37.1"/>
</g>
</svg>
