<?xml version="1.0" encoding="utf-8"?>
<!-- Generator: Adobe Illustrator 23.0.1, SVG Export Plug-In . SVG Version: 6.00 Build 0)  -->
<svg version="1.1" id="Layer_1" xmlns="http://www.w3.org/2000/svg" xmlns:xlink="http://www.w3.org/1999/xlink" x="0px" y="0px"
	 viewBox="0 0 500 500" style="enable-background:new 0 0 500 500;" xml:space="preserve">
<style type="text/css">
	.st0{fill:#FFFFFF;}
</style>
<g>
	<path class="st0" d="M473.3,390l-7.6-15.2c-1-1.8-2.5-3.2-4.4-3.8l-90.3-29.2c-3-1-5.6-2.7-7.6-5.1c-2.1-2.5-4.2-6.3-4.8-11.7
		c-0.3-3,0.6-5.9,2.6-8.1c1.8-2,3.9-5.6,4-11.4c0.2-10.3,0.2-10.3,0.2-10.3l1.8-1.6c0,0,1.1,6.6,5,4.7c0,0,2.4-1.7,0.1-8.1
		c-0.1-0.4-0.3-0.7-0.4-1.2l-4.1-14.9c0,0-3.9-1.9-4.2,5.3c0,0.5-0.3,1-0.7,1.2c-0.7,0.4-1.7,0.2-2.3-0.4l-4.1-4
		c-0.6-0.6-1.6-1.1-2.5-1c-2.1,0.1-3.8-1.9-3.3-3.9c0.1-0.5,0.3-1.1,0.5-1.7c0,0,4.7-16.4-11.4-26.9c-1.1-0.7-1.7-2-1.5-3.3
		l5.9-43.5c0.1-1-1.2-1.3-1.5-0.4c-3.8,9.1-11.1,28-12.2,40.6c-0.1,1.1-1.1,1.8-2.1,1.5c-1.3-0.3-3-0.7-4.4-1
		c-1.2-0.1-2.1-1.2-2.1-2.3V171c0-0.8-0.7-1.6-1.6-1.6l0,0c-0.8,0-1.6,0.7-1.6,1.6v34.4c0,1.2-0.7,2.2-1.9,2.6
		c-0.7,0.3-1.4,1.1-1.5,2.9v23.9c0,1.4-0.8,2.5-2.2,2.9c-0.4,0.1-1,0.3-1.5,0.5c-1.9,0.8-4,0.7-5.8-0.2L226,191.4
		c-2.6-1.5-3.3-5-1.4-7.3l15.1-19c1.8-2.2,3.2-4.7,4.2-7.4c2-5.3,4.8-14.1,2.7-20.4c-0.1-0.4-0.4-0.8-0.7-1.3
		c-1.8-1.8-7.7-5.6-16.7,8.5l-26.1,35.6c-1.8,2.5-5.2,3.2-7.9,1.6L103.4,128c-1.2-0.7-1.9-2-1.9-3.4c0-1.5-0.8-3.5-4.2-5L51.2,92.2
		c-2.2-1.4-5.1-0.6-6.5,1.6l-19.2,32c-1.4,2.2-0.6,5.1,1.6,6.5l48.8,29.5c0,0,2.5,1.3,4.8,0.3c1.5-0.6,3.1-0.3,4.4,0.4l84.6,52.6
		c1.9,1.2,2.4,3.7,1.3,5.5c-6,9.4-21,37-7.9,57.4l0,0c0.3-0.2,40.3-29.6,85.8,7.6c0,0,37.9,32.6,21.4,78.2c-0.5,1.5,0.5,3,2,3.1
		l77,3.8c4.2,0.2,8.5,0.8,12.6,1.8l107.9,25.9C469.7,398.5,477,398.9,473.3,390z M67.4,112.1l-14.6,24.1c-1.3,2.1-4,2.7-6.1,1.5
		l-7.8-4.8c-2.1-1.3-2.7-4-1.5-6.1l14.6-24.1c1.3-2.1,4-2.7,6.1-1.5l7.8,4.8C68,107.2,68.7,110,67.4,112.1z"/>
	<path class="st0" d="M200.5,273.6c-37,0-66.9,29.9-66.9,66.9s29.9,66.9,66.9,66.9s66.9-29.9,66.9-66.9
		C267.5,303.7,237.4,273.6,200.5,273.6z M200.5,389.7c-27.2,0-49.2-22-49.2-49.2c0-27.2,22-49.2,49.2-49.2s49.2,22,49.2,49.2
		C249.7,367.7,227.6,389.7,200.5,389.7z"/>
	<circle class="st0" cx="200.5" cy="340.6" r="39.2"/>
</g>
</svg>
